<?xml version="1.0" encoding="UTF-8"?>
<svg preserveAspectRatio="xMidYMid slice" width="30px" height="34px" xmlns="http://www.w3.org/2000/svg" viewBox="0 0 60 66">
  <path d="M39.19 60.97v-4.573h16.253V23.626H9.873v16.767H5.316V9.145c0-1.219.456-2.286 1.368-3.2.91-.915 1.974-1.372 3.19-1.372h4.936V0h4.937v4.573H45.57V0h4.936v4.573h4.937c1.215 0 2.279.457 3.19 1.372.911.914 1.367 1.981 1.367 3.2v47.252c0 1.22-.456 2.287-1.367 3.201-.911.915-1.975 1.372-3.19 1.372H39.19ZM20.506 66l-3.19-3.2 8.583-8.69H0v-4.572h25.899l-8.583-8.688 3.19-3.201 14.127 14.175L20.506 66ZM9.873 19.053h45.57V9.145H9.873v9.908Zm0 0V9.145v9.908Z" fill-rule="nonzero"></path>
</svg>
