<svg viewBox="0 0 360 154" xmlns="http://www.w3.org/2000/svg" xmlns:xlink="http://www.w3.org/1999/xlink"><defs><path id="a" d="M0 0h309.092v68.241H0z"/><path id="c" d="M0 0h163.636v25.435H0z"/><path id="e" d="M0 0h360v122.869H0z"/></defs><g fill="none" fill-rule="evenodd"><path fill="#FEFEFE" d="M79 82.53 82.559 123 261 107.47 257.441 67z"/><g transform="translate(25.454)"><mask id="b" fill="#fff"><use xlink:href="#a"/></mask><path d="M52.537 39.01v10.32l16.012-1.4V37.607L52.537 39.01Zm-20.856 6.951c0 1.932-.456 3.746-1.363 5.442-.907 1.699-2.115 3.07-3.618 4.108-1.507 1.041-3.138 1.638-4.899 1.791-4.541.398-7.834-1.187-9.88-4.756v-9.114c.739-1.882 1.99-3.439 3.748-4.67 1.76-1.233 3.804-1.953 6.132-2.157 2.726-.239 5.053.524 6.984 2.284 1.93 1.763 2.896 4.12 2.896 7.072Zm9.453 10.033c1.76-3.25 2.64-6.918 2.64-11.006 0-4.089-.796-7.54-2.385-10.353-1.589-2.813-3.733-4.882-6.43-6.21-2.696-1.325-5.663-1.845-8.9-1.562-3.009.265-5.735.914-8.175 1.95-2.441 1.04-4.458 2.28-6.046 3.725V0L0 1.037v67.204l11.922-1.044V63.45c3.294 2.892 7.466 4.117 12.52 3.675 3.462-.305 6.67-1.423 9.624-3.357 2.951-1.932 5.308-4.524 7.068-7.773Zm67.637-11.587c-1.874 3.91-4.883 6.048-9.027 6.412-1.762.153-3.393-.157-4.899-.935-1.504-.775-2.711-1.934-3.618-3.473-.91-1.54-1.362-3.273-1.362-5.205 0-2.951.922-5.475 2.767-7.567 1.845-2.092 4.074-3.253 6.686-3.481 2.269-.197 4.244.169 5.92 1.1 1.674.932 2.852 2.278 3.533 4.035v9.114Zm0 14.31 11.923-1.045V20.45l-11.07.969-.768 3.9c-1.477-1.687-3.18-2.944-5.11-3.769-1.93-.823-4.542-1.091-7.836-.804-3.179.28-6.16 1.392-8.942 3.34-2.781 1.945-5.01 4.54-6.684 7.78-1.676 3.244-2.513 6.907-2.513 10.995 0 6.474 1.717 11.207 5.153 14.2 3.434 2.993 7.905 4.248 13.413 3.766 4.712-.412 8.858-2.65 12.434-6.71v4.6Zm57.868-2.855 16.778-40.904-11.582 1.014-6.132 16.975-6.983-15.827-10.135.887 1.959 4.087-5.195 11.955-6.898-15.154-11.583 1.015 16.947 37.952 10.902-25.656 11.922 23.656Zm49.905-20.893c-1.872 3.91-4.883 6.05-9.027 6.413-1.76.153-3.393-.158-4.896-.936-1.505-.775-2.712-1.934-3.62-3.473-.909-1.538-1.362-3.272-1.362-5.204 0-2.952.922-5.475 2.767-7.567 1.846-2.092 4.073-3.254 6.686-3.483 2.27-.198 4.243.17 5.919 1.1 1.674.934 2.852 2.28 3.533 4.036v9.114Zm0 14.31 11.925-1.044V11.012l-11.072.97-.767 3.9c-1.477-1.687-3.179-2.944-5.11-3.769-1.931-.824-4.542-1.092-7.834-.804-3.18.278-6.162 1.39-8.943 3.338-2.783 1.946-5.01 4.542-6.685 7.782-1.675 3.243-2.514 6.906-2.514 10.995 0 6.473 1.717 11.208 5.154 14.198 3.434 2.995 7.905 4.25 13.413 3.768 4.712-.413 8.857-2.651 12.433-6.711v4.6Zm45.735-31.372.595-11.977c-1.079.096-2.553.664-4.428 1.708-1.873 1.045-3.705 2.441-5.494 4.186-1.787 1.747-3.192 3.658-4.215 5.735l-.936-8.435-10.73.94v37.222l11.836-1.036V31.684c0-2.044.482-4.089 1.448-6.132.964-2.044 2.355-3.768 4.173-5.177 1.816-1.408 3.918-2.218 6.303-2.427.623-.054 1.107-.067 1.448-.041Zm33.613-.218-16.35 6.969v-.768c0-3.067.793-5.576 2.383-7.533 1.589-1.956 3.719-3.052 6.387-3.285 3.86-.338 6.387 1.201 7.58 4.617Zm13.2 2.337c-1.022-5.704-3.25-9.964-6.684-12.788-3.437-2.821-7.823-4-13.158-3.531-3.918.343-7.525 1.552-10.816 3.628-3.294 2.08-5.893 4.733-7.793 7.965-1.902 3.234-2.853 6.668-2.853 10.301 0 3.917.822 7.325 2.469 10.219 1.645 2.894 4.074 5.038 7.282 6.432 3.206 1.393 7.026 1.897 11.456 1.509 2.043-.18 4.199-.709 6.47-1.59a35.84 35.84 0 0 0 6.473-3.291l-5.28-8.397c-2.555 1.872-5.024 2.911-7.408 3.12-3.124.273-5.594-.56-7.41-2.503l27.252-11.074Z" fill="#FEFEFE" mask="url(#b)"/></g><g transform="translate(87.231 128.565)"><mask id="d" fill="#fff"><use xlink:href="#c"/></mask><path d="m161.318.202.048 6.68-8.16-6.406-.096.007v11.544l2.335-.204-.049-6.56 8.177 6.301.063-.005V0l-2.318.202Zm-12.9 12.236 2.301-.201V1.13l-2.301.201v11.107Zm-9.82-10.246v11.106l7.795-.682v-2.114l-5.492.482V1.99l-2.302.202Zm-8.653 2.87 1.651-.144c.698-.061 1.17.082 1.413.427.243.346.365.72.365 1.123 0 .402-.144.789-.43 1.161-.284.373-.74.585-1.365.64l-1.634.144v-3.35Zm6.682 8.408-2.714-3.79a3.713 3.713 0 0 0 1.39-1.533 4.47 4.47 0 0 0 .453-1.964c0-1.158-.401-2.034-1.2-2.633-.8-.598-1.923-.836-3.373-.71l-3.54.311v11.107l2.302-.202v-3.53l1.54-.136 2.46 3.315 2.682-.235Zm-19.501-9.398v11.106l8.192-.716v-2.114l-5.89.517v-2.4l5.016-.439V7.913l-5.016.44v-2.37l5.666-.496V3.374l-7.968.698Zm-6.168 9.61-1.476.13v-2.417l1.317-.114c1.312-.115 1.97.22 1.97 1.005 0 .412-.168.736-.502.97-.333.238-.769.38-1.31.426Zm-1.476-6.828 1.237-.108c.467-.041.832.026 1.096.197.264.174.398.448.398.819 0 .362-.117.676-.349.943-.234.267-.563.42-.985.457l-1.397.122v-2.43Zm3.715 2.814c.444-.29.787-.655 1.031-1.094.244-.438.366-.936.366-1.488 0-.906-.355-1.567-1.063-1.982-.71-.415-1.684-.57-2.922-.461l-3.428.3v11.106l3.889-.34c1.164-.102 2.135-.45 2.913-1.048.777-.596 1.166-1.457 1.166-2.584 0-.573-.172-1.065-.516-1.472-.344-.407-.823-.72-1.436-.937ZM96.849 8.534l.875-1.752a6.935 6.935 0 0 0-1.699-.643c-.583-.135-1.308-.165-2.175-.089-1.102.147-1.982.54-2.644 1.182-.662.642-.991 1.44-.991 2.396 0 .654.16 1.183.483 1.587.323.406.707.702 1.15.896.446.192 1.001.385 1.669.578 1.131.323 1.698.771 1.698 1.345 0 .443-.18.777-.54 1.005-.36.228-.784.362-1.27.405-.413.037-.879-.013-1.396-.147a5.106 5.106 0 0 1-1.382-.575l-1.016 1.794c.592.35 1.232.594 1.921.73.688.136 1.38.174 2.08.112.836-.074 1.555-.279 2.158-.619.604-.34 1.061-.767 1.373-1.282a3.09 3.09 0 0 0 .469-1.633c0-.664-.13-1.2-.39-1.61a2.638 2.638 0 0 0-.975-.933 6.193 6.193 0 0 0-1.413-.533c-.677-.183-1.22-.389-1.628-.62-.407-.23-.61-.522-.61-.875 0-.381.139-.682.42-.896.28-.216.676-.346 1.183-.39.75-.066 1.634.122 2.65.567Zm-9.524.834.873-1.752a6.935 6.935 0 0 0-1.698-.643c-.582-.135-1.307-.165-2.175-.089-1.1.147-1.982.541-2.644 1.182-.66.642-.992 1.441-.992 2.396 0 .654.161 1.183.485 1.587.323.406.707.703 1.15.896.445.193 1 .385 1.667.578 1.132.322 1.699.771 1.699 1.345 0 .443-.18.777-.54 1.005-.36.228-.783.362-1.27.406-.413.036-.88-.014-1.397-.148a5.08 5.08 0 0 1-1.38-.575l-1.016 1.794c.59.35 1.232.594 1.92.73a7.311 7.311 0 0 0 2.08.112c.836-.073 1.555-.279 2.159-.619.603-.339 1.06-.767 1.373-1.281.313-.516.468-1.06.468-1.635 0-.663-.13-1.2-.39-1.61a2.638 2.638 0 0 0-.976-.933 6.193 6.193 0 0 0-1.412-.532c-.678-.183-1.22-.39-1.628-.62-.406-.23-.61-.522-.61-.875 0-.382.14-.68.42-.896.28-.216.675-.347 1.183-.39.752-.066 1.635.122 2.651.567ZM70.174 8.183V19.29l8.191-.717V16.46l-5.89.516v-2.399l5.018-.438v-2.114l-5.018.44v-2.37l5.669-.496V7.486l-7.97.697Zm-4.809.422.047 6.681-8.158-6.408-.097.008v11.543l2.335-.203-.049-6.56 8.177 6.3.063-.005V8.402l-2.318.203Zm-18.723 1.64V21.35l8.191-.718V18.52l-5.89.516v-2.399l5.016-.438v-2.114l-5.016.44v-2.37l5.667-.496V9.547l-7.968.697Zm-8.45 2.853 1.65-.146c.698-.06 1.17.081 1.413.428.244.344.366.72.366 1.122 0 .403-.144.79-.429 1.162-.286.371-.742.585-1.366.64l-1.634.142v-3.348Zm6.683 8.407-2.715-3.792a3.699 3.699 0 0 0 1.389-1.53c.302-.626.453-1.28.453-1.966 0-1.156-.4-2.034-1.199-2.632-.798-.6-1.924-.836-3.374-.71l-3.54.311v11.106l2.303-.201v-3.53l1.54-.136 2.46 3.315 2.683-.235Zm-17.503-2.48 1.176-2.805 1.127 2.603-2.303.201Zm3.969 3.665 2.668-.233-5.27-11.082-.127.011-5.272 12.005 2.27-.198.953-2.256 3.874-.34.904 2.093ZM24.52 12.256l-2.478.218-1.984 6.347-2.62-5.945-2.287.201.922 2.108-1.778 4.396-2.301-6.228-2.7.237 4.7 11.134 3.237-6.895 2.78 6.337 4.509-11.91ZM4.03 21.068l1.176-2.804 1.128 2.603-2.303.201ZM8 24.734l2.668-.233-5.27-11.082-.127.011L0 25.435l2.27-.198.952-2.257 3.873-.339.906 2.093Z" fill="#FEFEFE" mask="url(#d)"/></g><path d="M123.173 99.668c-1.283.112-2.343.678-3.18 1.693-.836 1.018-1.255 2.24-1.255 3.662 0 1.423.42 2.57 1.255 3.44.837.871 1.897 1.252 3.18 1.138 1.339-.117 2.42-.675 3.24-1.68.824-1.002 1.236-2.228 1.236-3.678 0-1.451-.412-2.605-1.235-3.463-.822-.858-1.902-1.23-3.241-1.112M168.992 95.45c-1.313.114-2.358.644-3.139 1.588-.78.946-1.17 2.156-1.17 3.633v.37l8.031-3.373c-.586-1.645-1.827-2.385-3.722-2.218M48.444 47.207c-1.074.752-1.854 1.64-2.373 2.701v4.551c.292-.004.59-.014.904-.04 1.205-.107 2.301-.51 3.348-1.234 1.087-.75 1.94-1.724 2.61-2.976a8.124 8.124 0 0 0 .983-3.923c0-.237-.036-.443-.053-.666-.28-.008-.552-.026-.851.001-1.772.155-3.264.673-4.568 1.586M124.013 47.012c0 .325.02.638.054.941.276.013.56.006.85-.02 2.772-.242 4.722-1.511 6.089-3.98V39.15c-.16.008-.315.008-.48.022-1.771.156-3.261.942-4.551 2.405-1.32 1.497-1.962 3.274-1.962 5.434M231.786 37.574c0 .325.02.637.054.941.277.013.56.007.85-.02 2.773-.241 4.724-1.51 6.09-3.98v-4.802c-.16.008-.314.008-.48.022-1.796.157-3.243.922-4.551 2.405-1.32 1.497-1.963 3.274-1.963 5.434M100.707 36.842l-3.486.305v3.229l2.94-.258c.113-1.122.31-2.209.546-3.276" fill="#D52E7F"/><g transform="translate(0 14.133)"><mask id="f" fill="#fff"><use xlink:href="#e"/></mask><path d="M339.868 1.763c1.553 2.644 2.676 5.762 3.322 9.365l.461 2.573-14 5.69 7.639 12.145-2.681 1.726a39.306 39.306 0 0 1-7.05 3.588c-2.55.986-5.023 1.59-7.354 1.794-4.955.433-9.33-.161-13.019-1.764-3.538-1.538-6.316-3.888-8.289-6.977a17.865 17.865 0 0 1-5.984-6.298c-1.709-3-2.662-6.486-2.85-10.37a8.299 8.299 0 0 0-2.636 1.36c-1.423 1.104-2.48 2.415-3.23 4.005-.768 1.623-1.14 3.177-1.14 4.756v17.52l-18.277 1.599v-5.96l-2.162.19v6.154l-18.363 1.61v-1.16a20.215 20.215 0 0 1-8.933 2.964c-.857.075-1.694.112-2.51.112-5.281 0-9.746-1.562-13.298-4.66-1.235-1.074-2.267-2.345-3.139-3.767-.815-.51-1.6-1.07-2.337-1.713-2.355-2.049-4.028-4.757-5.055-8.053L197.87 55.286l-4.259-8.448-1.217 2.968-7.742-15.359-9.835 23.148-3.999-8.955-1.477 3.474-14.5-32.471v32.654l-18.36 1.608v-1.159a20.208 20.208 0 0 1-8.936 2.963c-6.39.556-11.704-.97-15.807-4.546-1.239-1.079-2.273-2.355-3.146-3.783a18.277 18.277 0 0 1-2.33-1.697c-1.441-1.257-2.621-2.768-3.566-4.495v1.367l-22.45 1.964V38.56l-2.406.21c-.267 3.794-1.25 7.296-2.948 10.433-2.009 3.708-4.746 6.715-8.136 8.933-3.389 2.22-7.126 3.52-11.105 3.87-3.527.31-6.73-.096-9.58-1.204v1.02L27.708 63.43v-5.96l-5.475.48V29.58L0 31.528v91.341l360-31.528V0l-20.132 1.763ZM104.38 101.3l-9.494-12.057-1.507 1.61v11.412l-6.15.537V72.589l6.15-.54v10.757l-.167 1.534.92-1.23 10.04-12.005 7.865-.688-12.719 14.661 12.76 15.548-7.698.674Zm27.912-6.672c-.837 1.553-2.03 2.812-3.578 3.783-1.547.969-3.367 1.546-5.46 1.73-2.035.179-3.84-.053-5.417-.695-1.575-.642-2.8-1.65-3.68-3.024-.879-1.374-1.318-3.06-1.318-5.058 0-1.833.44-3.513 1.318-5.04.88-1.528 2.12-2.778 3.722-3.755 1.605-.975 3.423-1.55 5.46-1.729 2.035-.179 3.828.082 5.375.78 1.548.7 2.74 1.739 3.578 3.115.836 1.378 1.254 2.983 1.254 4.816 0 1.835-.418 3.526-1.254 5.077Zm11.243 3.244-5.855.513v-32.39l5.855-.513v32.39Zm11.178-.978-5.857.511V65.016l5.857-.513v32.39Zm14.736-5.684c1.172-.102 2.385-.605 3.64-1.508l2.594 4.042a17.793 17.793 0 0 1-3.18 1.591c-1.114.427-2.174.683-3.179.771-2.175.19-4.05-.049-5.627-.718-1.575-.667-2.766-1.7-3.576-3.093-.809-1.395-1.212-3.036-1.212-4.924 0-1.751.466-3.406 1.4-4.966.935-1.56 2.211-2.842 3.828-3.845a11.897 11.897 0 0 1 5.312-1.758c2.622-.23 4.777.335 6.464 1.691 1.686 1.357 2.782 3.41 3.283 6.157l-13.386 5.36c.893.935 2.106 1.335 3.64 1.2Zm25.125 2.192-4.476-7.079-1.631 1.334v6.28l-5.857.513V62.06l5.857-.512v20.28l8.7-7.043 3.558 2.767-6.485 5.371 7.153 9.882-6.819.597Zm22.37-15.506-4.433.39v13.546l-5.856.513V78.8l-2.845.248v-4.473l2.845-.25v-7.8l5.856-.513v7.8l4.434-.388v4.473Zm9.392 12.725-5.856.513v-17.94l5.856-.512V90.62Zm-.586-22.198c-.64.604-1.366.94-2.175 1.012-.837.073-1.584-.134-2.238-.627-.655-.488-.982-1.143-.982-1.965 0-.821.327-1.542.982-2.16.654-.618 1.401-.963 2.238-1.037a2.976 2.976 0 0 1 2.175.651c.642.504.962 1.168.962 1.989 0 .822-.32 1.534-.962 2.137Zm14.742 21.329-.167.014-10.96-17.349 6.945-.608 4.266 8.165 3.764-8.869 6.528-.57-10.376 19.217Z" fill="#D52E7F" mask="url(#f)"/></g></g></svg>